<svg version="1" xmlns="http://www.w3.org/2000/svg" width="1365.333" height="1365.333" viewBox="0 0 1024.000000 1024.000000"><path d="M0 512v512h1024V0H0v512zm874-310c17.8 4.4 37.5 16.5 48.8 30 29.4 35.1 30.8 83.4 3.3 119.8-17.3 22.7-46.4 37.2-75.1 37.2-8.9 0-25.3-3-32.8-5.9l-4.8-1.9-65.9 97c-36.3 53.4-66.4 97.8-66.9 98.9-.6 1.3 0 2.7 2.5 5.7 8.5 10 15.8 25.8 18.9 41.2 5.4 25.9-1.2 53.7-17.9 75.8-13.8 18.1-33.7 30.4-57.1 35.2-30.1 6.2-62.9-3.8-85-26-12-11.9-21-27.9-25.2-44.6-3.2-12.6-3.2-32.2 0-44.8 1.2-4.9 2.1-9 2-9.1-.2-.1-22.9-14.8-50.5-32.8-27.6-18-50.4-32.7-50.6-32.7-.3 0-3.4 2.9-7 6.4-22.2 21.8-54.9 31.8-84.2 25.7-5.4-1.1-10-1.9-10.1-1.8-6.9 9.3-67.4 96.1-67.4 96.8 0 .6 1.4 3.1 3.1 5.5 4.9 7.2 10.7 20.4 13.1 30 3.2 12.6 3.2 32.2 0 44.8-11 43.8-51.5 74.4-95.7 72.3-36.7-1.8-67.1-22.1-82.6-55.2-21.9-46.6-1.4-102.8 45.6-125.1 18.3-8.7 39.3-11.4 58.5-7.4 5.8 1.1 14.1 3.7 18.5 5.6 7.5 3.2 8.1 3.3 9.3 1.7.7-1 15.1-21.3 31.8-45.1l30.6-43.2-5.7-6.3c-16.5-18.1-25-38.3-26.2-62.2-.8-18 4.1-36.9 13.9-53.2 12.2-20.2 34.5-36.5 58.4-42.5 12.6-3.2 32.2-3.2 44.8 0 23.9 6 46.2 22.3 58.4 42.5 12 19.9 16.7 44.4 12.6 65.7-1.3 6.9-1.3 8.5-.2 9.5 1.7 1.5 101.5 66.5 102.2 66.5.3 0 4.5-3.2 9.3-7.1 22.4-18 51.5-25.5 78.1-20 5.6 1.2 12.5 3 15.2 4.1l4.9 1.9 8.4-12.2C694.9 485 780 359 780 358c0-.6-1.5-2.9-3.2-5-12.1-14.1-20.8-38.9-20.8-59 0-28.6 14.5-57.9 37.1-75 18.8-14.1 37.9-20.4 60.4-19.6 7.6.3 15.1 1.2 20.5 2.6z"/><path d="M840.5 240c-19.8 4.4-35.2 18-41.7 36.8-1.8 5.3-2.3 8.9-2.3 17.2 0 8.3.5 11.9 2.3 17.2 5.6 16.4 18 28.8 34.8 35 4.8 1.7 8.1 2.1 17.4 2.1 9.3 0 12.6-.4 17.4-2.1 16.8-6.2 29.2-18.6 34.8-35 3.2-9.5 3.2-24.9 0-34.4-5.7-16.4-18.3-29.1-34.8-34.9-6.7-2.3-21.5-3.3-27.9-1.9zM333.5 430c-19.8 4.4-35.2 18-41.7 36.8-1.8 5.3-2.3 8.9-2.3 17.2 0 8.3.5 11.9 2.3 17.2 5.6 16.4 18 28.8 34.8 35 8.5 3.1 26.3 3.1 34.8 0 16.8-6.2 29.2-18.6 34.8-35 3.2-9.5 3.2-24.9 0-34.4-5.7-16.4-18.3-29.1-34.8-34.9-6.7-2.3-21.5-3.3-27.9-1.9zM598.5 588c-19.8 4.4-35.2 18-41.7 36.8-1.8 5.3-2.3 8.9-2.3 17.2 0 8.3.5 11.9 2.3 17.2 5.6 16.4 18 28.8 34.8 35 8.5 3.1 26.3 3.1 34.8 0 16.8-6.2 29.2-18.6 34.8-35 3.2-9.5 3.2-24.9 0-34.4-5.7-16.4-18.3-29.1-34.8-34.9-6.7-2.3-21.5-3.3-27.9-1.9zM162.5 676c-19.8 4.4-35.2 18-41.7 36.8-3.2 9.5-3.2 24.9 0 34.4 5.6 16.4 18 28.8 34.8 35 8.5 3.1 26.3 3.1 34.8 0 16.8-6.2 29.2-18.6 34.8-35 3.2-9.5 3.2-24.9 0-34.4-5.7-16.4-18.3-29.1-34.8-34.9-6.7-2.3-21.5-3.3-27.9-1.9z"/></svg>